<svg width="192" height="192" viewBox="0 0 192 192" fill="none" xmlns="http://www.w3.org/2000/svg">
<rect width="192" height="192" fill="#0672CB"/>
<path fill-rule="evenodd" clip-rule="evenodd" d="M168 108.718V118.218H140.807V71.3925H150.695V108.718H168ZM41.3048 117.541C51.1933 117.541 59.8457 110.076 61.6998 99.896L85.8029 120.255L109.906 99.896V117.541H137.099V108.04H119.176V70.7146H109.288V88.3592L86.4209 108.718L81.4767 103.968L92.6012 94.4669L104.344 84.2873L97.5454 78.1796L74.6784 97.8601L69.7341 93.1096L92.6012 74.1077L85.8029 68L61.6998 88.3592C59.2276 78.1796 51.1933 70.7146 41.3048 70.7146H24V117.541H41.3048H41.3048ZM33.2695 108.719V80.2166H40.6859C46.8662 80.2166 52.4284 86.3243 52.4284 94.4679C52.4284 101.933 47.4842 108.719 40.6859 108.719H33.2695H33.2695Z" fill="white"/>
</svg>
